<svg xmlns="http://www.w3.org/2000/svg" viewBox="0 0 512 512">
  <defs>
    <linearGradient id="bg" x1="64" y1="56" x2="448" y2="456" gradientUnits="userSpaceOnUse">
      <stop offset="0" stop-color="#13181f"/>
      <stop offset="1" stop-color="#2d343d"/>
    </linearGradient>
    <linearGradient id="accent" x1="140" y1="142" x2="379" y2="358" gradientUnits="userSpaceOnUse">
      <stop offset="0" stop-color="#ffb34d"/>
      <stop offset="1" stop-color="#ff6b2c"/>
    </linearGradient>
    <linearGradient id="screen" x1="163" y1="170" x2="349" y2="317" gradientUnits="userSpaceOnUse">
      <stop offset="0" stop-color="#d8faff"/>
      <stop offset="1" stop-color="#8de2f2"/>
    </linearGradient>
  </defs>
  <rect width="512" height="512" rx="120" fill="#f4efe7"/>
  <path d="M176 96h160l34 44h44c25 0 46 21 46 46v170c0 33-27 60-60 60H112c-33 0-60-27-60-60V186c0-25 21-46 46-46h44z" fill="url(#bg)"/>
  <rect x="128" y="172" width="256" height="164" rx="28" fill="url(#accent)"/>
  <rect x="163" y="206" width="186" height="96" rx="20" fill="url(#screen)"/>
  <path d="M244 220h36l-22 34h30l-52 70 13-47h-31z" fill="#172028"/>
  <path d="M118 240h36v64h-36a18 18 0 0 1-18-18v-28a18 18 0 0 1 18-18Zm240-92h44a18 18 0 0 1 18 18v26h-62z" fill="#424b55"/>
  <circle cx="163" cy="366" r="18" fill="#f8f1e8"/>
  <circle cx="349" cy="366" r="18" fill="#f8f1e8"/>
  <rect x="214" y="348" width="84" height="16" rx="8" fill="#f8f1e8" opacity=".9"/>
</svg>
